# xmcd CD database file
#
# Track frame offsets:
#	150
#	15456
#	28224
#	42135
#	54560
#	66818
#	80469
#	94798
#	107410
#	119123
#	131671
#	145308
#	157082
#	170914
#	184903
#	198200
#	210274
#	223194
#
# Disc length: 3185 seconds
#
# Revision: 0
# Processed by: cddbd v1.5.2PL0 Copyright (c) Steve Scherf et al.
# Submitted via: CDex 1.40Release
#
DISCID=090c6f12
DTITLE=Lena Honre - Whispering
DYEAR=1900
DGENRE=Blues
TTITLE0=Stormy Weather
TTITLE1=Whispering
TTITLE2=More Than You Know
TTITLE3=At Long Last Love
TTITLE4=Where Or When?
TTITLE5=St. Louis Blues
TTITLE6=I Gotta Right To Sing The Blues
TTITLE7=As Long As I Live
TTITLE8=Little Girl Blue
TTITLE9=Old Fashioned Love
TTITLE10=My Man's Gone Now
TTITLE11=Blue Prelude
TTITLE12=Just Squeeze Me
TTITLE13=Hesitating Blues
TTITLE14=You Go To My Head
TTITLE15=Glad To Be Unhappy
TTITLE16=It's A Rainy Day 
TTITLE17=Out Of Nowhere
EXTD=ID3G: 0
EXTT0=
EXTT1=
EXTT2=
EXTT3=
EXTT4=
EXTT5=
EXTT6=
EXTT7=
EXTT8=
EXTT9=
EXTT10=
EXTT11=
EXTT12=
EXTT13=
EXTT14=
EXTT15=
EXTT16=
EXTT17=
PLAYORDER=
